<?xml version="1.0" encoding="UTF-8" standalone="no"?>
<!-- Generator: Gravit.io -->
<svg xmlns="http://www.w3.org/2000/svg" xmlns:xlink="http://www.w3.org/1999/xlink" style="isolation:isolate" viewBox="0 0 400 400" width="400pt" height="400pt"><defs><clipPath id="_clipPath_NdKj36PzX0dpqcGcITl26fqGtcLIaOvA"><rect width="400" height="400"/></clipPath></defs><g clip-path="url(#_clipPath_NdKj36PzX0dpqcGcITl26fqGtcLIaOvA)"><path d=" M 47 104 L 358 104 Q 399.5 311 400 348 Q 400.5 385 366 389.268 L 43 389.268 Q 3.5 388 3 348 Q 2.5 308 47 104 Z " fill="rgb(0,0,0)" vector-effect="non-scaling-stroke" stroke-width="1" stroke="rgb(0,0,0)" stroke-linejoin="miter" stroke-linecap="square" stroke-miterlimit="3"/><rect x="277" y="142" width="23" height="58" transform="matrix(1,0,0,1,0,0)" fill="rgb(255,255,255)" vector-effect="non-scaling-stroke" stroke-width="1" stroke="rgb(255,255,255)" stroke-linejoin="miter" stroke-linecap="square" stroke-miterlimit="2"/><path d=" M 103 233 Q 120.5 315 210 315 Q 299.5 315 305 233 L 282 233 Q 284.5 292 210 293 Q 135.5 294 126 233 L 103 233 Z " fill="rgb(255,255,255)" vector-effect="non-scaling-stroke" stroke-width="1" stroke="rgb(255,255,255)" stroke-linejoin="miter" stroke-linecap="square" stroke-miterlimit="3"/><path d=" M 103 97 Q 125.5 3 201 4 Q 276.5 5 300 97 L 277 97 Q 265.5 29 201 29 Q 136.5 29 126 97 L 103 97 Z " fill="rgb(0,0,0)" vector-effect="non-scaling-stroke" stroke-width="1" stroke="rgb(0,0,0)" stroke-linejoin="miter" stroke-linecap="square" stroke-miterlimit="3"/><rect x="103" y="142" width="23" height="58" transform="matrix(1,0,0,1,0,0)" fill="rgb(255,255,255)"/><g style="isolation: isolate;"><rect x="103" y="142" width="23" height="58" transform="matrix(1,0,0,1,0,0)" fill="none" vector-effect="non-scaling-stroke" stroke-width="1" stroke="rgb(255,255,255)" stroke-linejoin="miter" stroke-linecap="square" stroke-miterlimit="2"/><rect x="103" y="142" width="23" height="58" transform="matrix(1,0,0,1,0,0)" fill="none" vector-effect="non-scaling-stroke" stroke-width="1" stroke="rgb(0,0,0)" stroke-linejoin="miter" stroke-linecap="square" stroke-miterlimit="2"/></g></g></svg>